<svg width="312" height="312" viewBox="0 0 312 312" fill="none" xmlns="http://www.w3.org/2000/svg">
<path fill-rule="evenodd" clip-rule="evenodd" d="M312 156C312 242.156 242.156 312 156 312C69.8436 312 0 242.156 0 156C0 69.8436 69.8436 0 156 0C242.156 0 312 69.8436 312 156ZM308 156C308 239.947 239.947 308 156 308C72.0527 308 4 239.947 4 156C4 72.0527 72.0527 4 156 4C239.947 4 308 72.0527 308 156ZM156 303C237.186 303 303 237.186 303 156C303 74.8141 237.186 9 156 9C74.8141 9 9 74.8141 9 156C9 237.186 74.8141 303 156 303ZM156 301C236.081 301 301 236.081 301 156C301 75.9187 236.081 11 156 11C75.9187 11 11 75.9187 11 156C11 236.081 75.9187 301 156 301ZM145.537 52.1605C145.089 50.3231 144.514 49.5251 143.259 49.3955C138.081 48.8608 134.373 48.9023 129.039 49.3164C128.055 49.6604 127.2 50.1647 126.73 52.0559C126.73 52.0559 124.606 66.1111 123.816 68.057C121.908 68.3781 115.943 69.7869 112.014 71.2025C110.626 69.3743 102.961 60.3221 101.726 59.0632C100.401 57.7135 99.499 57.3213 98.3539 57.8518C93.63 60.0401 90.4647 61.9715 86.0928 65.0544C85.4228 65.8533 84.9455 66.724 85.5092 68.5893C85.5092 68.5893 90.2281 80.1774 91.0718 83.3246C87.9282 86.0704 83.8583 90.3578 83.216 91.5C82.4493 91.0689 69.73 86.5477 67.9058 86.0481C66.0816 85.5487 65.1051 85.6635 64.3826 86.6983C61.402 90.9667 59.6388 94.2287 57.4125 99.0931C57.2357 100.121 57.2615 101.113 58.6873 102.441C58.6873 102.441 69.7712 110.985 71.2309 112.716C69.7806 116.641 68.2293 122.57 68.219 123.908C67.3395 123.901 54.0194 126.091 52.1811 126.536C50.3427 126.981 49.5435 127.553 49.4111 128.808C48.8653 133.986 48.8987 137.694 49.3013 143.028C49.6432 144.013 50.1457 144.869 52.0358 145.343C52.0358 145.343 66.0864 147.497 68.0307 148.292C68.3329 150.111 69.6161 155.622 70.9546 159.54C69.2804 160.765 59.939 168.523 58.6524 169.763C57.2903 171.076 56.8897 171.973 57.4094 173.123C59.5533 177.867 61.4548 181.051 64.4965 185.452C65.289 186.129 66.1554 186.614 68.0257 186.068C68.0257 186.068 81.2406 180.831 83.3201 180.535C84.5154 181.972 88.4927 186.169 91.6469 188.871C90.3561 192.182 87.0119 201.478 86.5812 203.017C86.0714 204.838 86.1808 205.815 87.2114 206.543C91.4629 209.548 94.7149 211.33 99.5665 213.584C100.593 213.766 101.586 213.746 102.922 212.328C102.922 212.328 110.616 202.462 112.924 200.161C116.872 201.518 122.617 202.909 123.927 202.898C123.936 203.776 126.355 217.057 126.831 218.887C127.307 220.718 127.894 221.508 129.151 221.618C134.337 222.075 138.044 221.977 143.37 221.484C144.349 221.125 145.197 220.608 145.637 218.709C145.637 218.709 147.52 204.842 148.293 202.714C152.42 202.015 158.333 200.405 159.498 199.747C159.93 200.513 168.468 210.969 169.769 212.342C171.071 213.714 171.966 214.121 173.12 213.61C177.816 211.531 180.991 209.677 185.324 206.741C185.238 206.339 182.945 204.046 181.821 203.831C180.546 205.305 174.112 208.836 172.235 209.243C171.213 208.366 162.78 197.894 161.547 195.913C161.277 195.48 160.943 195.219 160.558 195.1C159.984 194.823 159.301 194.787 158.672 195.031C154.691 196.577 150.516 197.731 146.192 198.442C145.072 198.627 144.228 199.579 144.222 200.714C144.115 201.364 143.947 202.649 143.739 204.231L143.736 204.254C143.121 208.931 142.169 216.175 141.495 217.263C139.667 217.938 132.327 217.918 130.487 217.367C130.016 216.105 127.697 202.862 127.575 200.531C127.546 199.985 127.356 199.576 127.039 199.28C126.982 198.809 126.798 198.536 126.103 198.426C121.885 197.76 117.696 196.654 113.601 195.094C112.541 194.69 111.332 195.087 110.755 196.064C110.337 196.573 109.544 197.598 108.568 198.861C105.684 202.593 101.203 208.391 100.071 208.993C98.1507 208.656 91.8181 204.944 90.5054 203.542C90.7338 202.215 95.3951 189.604 96.4624 187.529C96.9653 186.551 96.6279 185.722 95.7766 185.026C92.7596 182.557 89.6104 179.486 87.1586 176.577C86.5608 175.868 85.6133 175.575 84.7469 175.814C84.1812 175.656 83.5616 175.711 83.0172 176.013C82.3991 176.24 81.1957 176.722 79.7149 177.317L79.6748 177.333C75.2968 179.089 68.5335 181.803 67.2566 181.748C65.7717 180.486 62.1912 174.078 61.7698 172.204C62.6389 171.176 73.0458 162.663 75.0172 161.414C75.9461 160.825 76.0747 159.94 75.6934 158.909C74.3423 155.252 73.1833 151.008 72.5422 147.258C72.5054 147.043 72.4399 146.837 72.3501 146.645C72.3297 146.512 72.3097 146.379 72.29 146.246C72.1248 145.123 71.1878 144.263 70.053 144.236C69.429 144.124 68.2156 143.943 66.716 143.719L66.5449 143.693L66.5364 143.692L66.536 143.692C61.8711 142.997 54.6311 141.919 53.5538 141.226C52.91 139.386 53.056 132.048 53.6388 130.217C54.9085 129.768 68.1899 127.677 70.5221 127.595C71.0315 127.577 71.4246 127.417 71.719 127.143C72.2453 126.783 72.6184 126.209 72.7198 125.543C73.3623 121.321 74.4437 117.126 75.9811 113.023C76.3794 111.96 75.975 110.754 74.9943 110.182C74.4845 109.767 73.4558 108.981 72.1897 108.014L72.1867 108.012L72.186 108.011L72.1848 108.01C68.4371 105.148 62.6144 100.7 62.0062 99.5712C62.3322 97.6494 66.0074 91.2958 67.4024 89.9753C68.7309 90.196 81.3682 94.786 83.4494 95.8415C83.9374 96.0889 84.3871 96.1287 84.801 96.0007C85.2374 96.1855 85.5663 96.1623 86.0081 95.6142C88.688 92.2895 91.7339 89.2087 95.1274 86.4368C96.0066 85.7187 96.264 84.4731 95.7043 83.4856C95.4737 82.8727 94.9832 81.683 94.3793 80.2181L94.3791 80.2176L94.3703 80.1962L94.3689 80.1928C92.5713 75.8326 89.7793 69.0605 89.8216 67.7795C91.0705 66.2828 97.444 62.6424 99.3141 62.2033C100.351 63.0627 108.961 73.3892 110.228 75.3487C110.825 76.2722 111.712 76.3924 112.74 76.0014C116.383 74.6161 120.616 73.4171 124.36 72.7409C124.665 72.6858 124.95 72.5734 125.202 72.4156C125.425 72.3799 125.648 72.3453 125.871 72.312C126.994 72.1443 127.852 71.2055 127.876 70.0706C127.991 69.4228 128.18 68.1399 128.411 66.5613L128.411 66.561C129.096 61.8949 130.159 54.6444 130.851 53.5649C132.689 52.9172 140.028 53.0473 141.859 53.6261C142.311 54.8949 144.431 68.1717 144.518 70.5037C144.559 71.6026 145.259 72.1591 146.343 72.3487C150.182 73.0213 154.434 74.1551 157.996 75.4878C158.201 75.5646 158.412 75.6115 158.622 75.6302C158.747 75.6795 158.872 75.7292 158.998 75.7794C160.051 76.2018 161.267 75.8249 161.86 74.8575C162.287 74.3568 163.098 73.3446 164.095 72.0989L164.096 72.0976C167.043 68.416 171.622 62.6965 172.764 62.1141C174.678 62.4837 180.946 66.3025 182.235 67.7272C181.984 69.0504 177.107 81.5799 176.005 83.6366C175.764 84.0858 175.704 84.5061 175.793 84.8985C175.839 85.5344 176.147 86.1456 176.672 86.5685C179.998 89.248 183.079 92.2935 185.851 95.6869C186.569 96.5659 187.814 96.8232 188.802 96.2634C189.418 96.0315 190.617 95.5372 192.092 94.9288L192.095 94.9276L192.095 94.9275C196.455 93.1295 203.227 90.3368 204.508 90.379C206.004 91.6278 209.646 98.0009 210.085 99.871C209.225 100.908 198.9 109.519 196.94 110.786C195.33 111.844 195.849 113.112 195.849 113.112C197.374 117.101 198.503 121.283 199.191 125.611C199.369 126.732 200.316 127.581 201.451 127.594C202.1 127.704 203.381 127.879 204.959 128.096L204.96 128.096L204.961 128.096L204.966 128.097C209.638 128.737 216.899 129.732 217.984 130.414C218.649 132.246 218.589 139.586 218.026 141.423C216.762 141.887 203.506 144.131 201.175 144.24C201.03 144.246 200.895 144.265 200.768 144.294L200.639 144.298L200.638 144.298C199.82 144.321 199.378 144.333 199.233 145.267C198.575 149.487 197.48 153.677 195.928 157.776C195.525 158.837 195.926 160.044 196.905 160.62C197.413 161.037 198.441 161.828 199.706 162.8L199.718 162.81L199.719 162.81C203.457 165.687 209.253 170.147 209.856 171.276C209.524 173.197 205.826 179.537 204.426 180.853C204.046 182.027 206.798 184.321 207.435 184.14C210.431 179.882 212.205 176.626 214.448 171.769C214.628 170.743 214.606 169.75 213.185 168.417C213.185 168.417 203.032 160.534 200.907 158.351C202.225 154.445 203.525 149.153 203.52 147.9C204.4 147.898 217.693 145.553 219.527 145.087C221.36 144.621 222.153 144.039 222.27 142.783C222.757 137.599 222.68 133.892 222.216 128.563C221.862 127.582 221.35 126.731 219.455 126.28C219.455 126.28 207.066 124.526 203.922 123.672C203.131 119.574 201.474 113.899 200.81 112.769C201.568 112.324 211.876 103.607 213.225 102.282C214.575 100.957 214.967 100.055 214.436 98.9102C212.247 94.1866 210.315 91.0215 207.233 86.6499C206.434 85.9801 205.562 85.5028 203.698 86.0667C203.698 86.0667 190.737 91.346 188.507 91.7365C185.844 88.5078 181.501 84.1837 180.35 83.502C180.799 82.7453 185.608 70.1321 186.149 68.3198C186.691 66.5074 186.598 65.5286 185.58 64.7827C181.38 61.7058 178.159 59.8689 173.346 57.5325C172.324 57.3323 171.33 57.3356 169.97 58.7307C169.97 58.7307 161.038 69.7889 159.373 71.0691C157.648 70.4146 152.24 68.7505 148.181 67.9359C147.965 65.8726 145.961 53.896 145.537 52.1605ZM136.156 193.036C148.276 193.036 159.511 189.246 168.739 182.785C169.12 183.141 169.707 183.765 170.415 184.518L170.415 184.518C171.171 185.323 172.066 186.274 172.998 187.206C176.258 190.466 177.44 191.955 177.44 192.801C177.871 194.908 178.367 195.462 179.22 196.416L179.275 196.478C179.275 197.379 229.061 247.165 229.962 247.165C231.534 248.244 231.942 248.412 232.486 248.541C232.486 248.796 233.709 249 235.238 249C237.179 249.013 238.339 248.577 240.522 247.165C241.393 246.334 242.22 245.629 243 244.965L243.001 244.964C245.289 243.015 247.173 241.411 248.541 237.991C248.845 237.229 249 236.767 249 235.238C249 233.709 248.834 233.115 248.541 232.486C248.082 231.501 247.165 230.192 247.165 230.192C247.165 230.192 197.379 179.275 196.478 179.275C196.478 179.275 194.413 177.44 192.801 177.44C191.955 177.44 190.466 176.258 187.206 172.998C185.509 171.3 183.746 169.505 182.929 168.533C189.302 159.344 193.036 148.186 193.036 136.156C193.036 104.742 167.57 79.2752 136.156 79.2752C104.742 79.2752 79.2752 104.742 79.2752 136.156C79.2752 167.57 104.742 193.036 136.156 193.036ZM179.037 186.614C178.651 186.614 173.963 181.837 172.422 179.977C175.243 177.641 177.834 175.037 180.156 172.205C180.618 172.662 181.208 173.286 181.821 173.934L181.822 173.935C182.443 174.591 183.087 175.271 183.642 175.826C185.276 177.461 186.615 178.906 186.615 179.037C183.136 181.953 181.54 183.623 179.037 186.614ZM136.156 188.449C165.037 188.449 188.449 165.037 188.449 136.156C188.449 107.275 165.037 83.8623 136.156 83.8623C107.275 83.8623 83.8623 107.275 83.8623 136.156C83.8623 165.037 107.275 188.449 136.156 188.449ZM245.33 234.78C245.33 233.862 244.413 232.943 244.413 232.943C244.413 232.943 194.494 181.075 192.119 181.11C189.744 181.145 188.631 182.146 185.353 185.496C182.118 188.802 181.11 189.881 181.11 192.119C181.11 194.358 232.943 244.413 232.943 244.413C232.943 244.413 233.862 245.33 234.78 245.33C236.705 245.33 237.414 244.606 239.676 242.299C240.061 241.907 240.491 241.468 240.98 240.98C241.465 240.494 241.9 240.067 242.291 239.684L242.298 239.678L242.298 239.677L242.299 239.677L242.299 239.676C244.606 237.414 245.33 236.705 245.33 234.78ZM182.027 136.156C182.027 161.49 161.49 182.027 136.156 182.027C110.822 182.027 90.2844 161.49 90.2844 136.156C90.2844 110.822 110.822 90.2843 136.156 90.2843C161.49 90.2843 182.027 110.822 182.027 136.156ZM178.328 136.156C178.328 159.447 159.447 178.328 136.156 178.328C112.865 178.328 93.9837 159.447 93.9837 136.156C93.9837 112.865 112.865 93.9837 136.156 93.9837C159.447 93.9837 178.328 112.865 178.328 136.156ZM109.545 159.35C108.983 159.898 108.946 160.792 109.485 161.362C116.175 168.438 125.65 172.853 136.156 172.853C156.423 172.853 172.853 156.423 172.853 136.156C172.853 125.984 168.714 116.778 162.029 110.131C161.472 109.578 160.578 109.593 160.016 110.14C159.408 110.733 159.426 111.713 160.026 112.314C166.123 118.418 169.894 126.847 169.894 136.156C169.894 154.789 154.789 169.894 136.156 169.894C126.54 169.894 117.863 165.87 111.717 159.415C111.132 158.8 110.153 158.757 109.545 159.35Z" fill="white"/>
</svg>
