<svg width="312" height="312" viewBox="0 0 312 312" fill="none" xmlns="http://www.w3.org/2000/svg">
<path fill-rule="evenodd" clip-rule="evenodd" d="M312 156C312 242.156 242.156 312 156 312C69.8436 312 0 242.156 0 156C0 69.8436 69.8436 0 156 0C242.156 0 312 69.8436 312 156ZM308 156C308 239.947 239.947 308 156 308C72.0527 308 4 239.947 4 156C4 72.0527 72.0527 4 156 4C239.947 4 308 72.0527 308 156ZM156 303C237.186 303 303 237.186 303 156C303 74.8141 237.186 9 156 9C74.8141 9 9 74.8141 9 156C9 237.186 74.8141 303 156 303ZM156 301C236.081 301 301 236.081 301 156C301 75.9187 236.081 11 156 11C75.9187 11 11 75.9187 11 156C11 236.081 75.9187 301 156 301ZM116.152 84.4284C114.252 85.0577 112.221 85.3983 110.11 85.3983C109.141 85.3983 108.188 85.3264 107.257 85.1877L69.8797 181.414C73.0698 182.4 75.9045 184.196 78.1437 186.562L142.054 143.814L116.152 84.4284ZM120.655 82.2459L146.277 140.989L199.608 105.317C198.422 102.822 197.758 100.031 197.758 97.0847C197.758 95.893 197.867 94.7267 198.075 93.595L127.985 73.2201C126.526 76.9329 123.943 80.081 120.655 82.2459ZM129.189 68.363C129.268 67.6527 129.309 66.9307 129.309 66.1992C129.309 55.5958 120.714 47 110.11 47C99.5068 47 90.911 55.5958 90.911 66.1992C90.911 74.0724 95.6501 80.8387 102.431 83.8011L64.8435 180.57C64.6296 180.563 64.4148 180.559 64.1992 180.559C53.5958 180.559 45 189.155 45 199.758C45 210.362 53.5958 218.958 64.1992 218.958C73.0216 218.958 80.4542 213.007 82.7021 204.9L220.325 223.741C220.306 224.092 220.297 224.445 220.297 224.801C220.297 235.404 228.892 244 239.496 244C250.099 244 258.695 235.404 258.695 224.801C258.695 214.197 250.099 205.602 239.496 205.602C239.418 205.602 239.34 205.602 239.262 205.603L222.369 115.511C230.338 113.174 236.157 105.809 236.157 97.0847C236.157 86.4813 227.561 77.8856 216.958 77.8856C209.307 77.8856 202.701 82.3607 199.616 88.836L129.189 68.363ZM217.426 116.278C217.27 116.282 217.114 116.284 216.958 116.284C213.402 116.284 210.072 115.317 207.216 113.632L172.874 162.803C176.872 166.322 179.394 171.476 179.394 177.22C179.394 179.699 178.924 182.069 178.069 184.244L178.846 183.089L223.999 213.464C226.506 210.044 230.117 207.484 234.307 206.311L217.426 116.278ZM221.587 217.868L176.423 187.485C173.019 192.855 167.023 196.419 160.195 196.419C151.979 196.419 144.969 191.259 142.228 184.003L83.3309 198.139C83.3755 198.673 83.3983 199.213 83.3983 199.758C83.3983 199.822 83.398 199.885 83.3974 199.949L221.246 218.821C221.352 218.499 221.465 218.181 221.587 217.868ZM82.2676 193.252L141.09 179.134C141.028 178.505 140.996 177.866 140.996 177.22C140.996 166.617 149.592 158.021 160.195 158.021C163.258 158.021 166.154 158.739 168.723 160.015L203.271 110.549C202.943 110.216 202.628 109.871 202.325 109.515L148.308 145.646L153.926 158.526L149.343 160.525L144.085 148.47L81.0832 190.611C81.5414 191.455 81.9383 192.337 82.2676 193.252ZM125.136 66.1992C125.136 74.4975 118.408 81.2246 110.11 81.2246C101.812 81.2246 95.0847 74.4975 95.0847 66.1992C95.0847 57.9008 101.812 51.1737 110.11 51.1737C118.408 51.1737 125.136 57.9008 125.136 66.1992ZM231.983 97.0847C231.983 105.383 225.256 112.11 216.958 112.11C208.659 112.11 201.932 105.383 201.932 97.0847C201.932 88.7864 208.659 82.0593 216.958 82.0593C225.256 82.0593 231.983 88.7864 231.983 97.0847ZM160.195 192.246C168.493 192.246 175.22 185.519 175.22 177.22C175.22 168.922 168.493 162.195 160.195 162.195C151.897 162.195 145.169 168.922 145.169 177.22C145.169 185.519 151.897 192.246 160.195 192.246ZM254.521 224.801C254.521 233.099 247.794 239.826 239.496 239.826C231.197 239.826 224.47 233.099 224.47 224.801C224.47 216.503 231.197 209.775 239.496 209.775C247.794 209.775 254.521 216.503 254.521 224.801ZM64.1992 214.784C72.4975 214.784 79.2246 208.057 79.2246 199.758C79.2246 191.46 72.4975 184.733 64.1992 184.733C55.9008 184.733 49.1737 191.46 49.1737 199.758C49.1737 208.057 55.9008 214.784 64.1992 214.784Z" fill="black"/>
</svg>
