<svg width="312" height="312" viewBox="0 0 312 312" fill="none" xmlns="http://www.w3.org/2000/svg">
<path fill-rule="evenodd" clip-rule="evenodd" d="M312 156C312 242.156 242.156 312 156 312C69.8436 312 0 242.156 0 156C0 69.8436 69.8436 0 156 0C242.156 0 312 69.8436 312 156ZM308 156C308 239.947 239.947 308 156 308C72.0527 308 4 239.947 4 156C4 72.0527 72.0527 4 156 4C239.947 4 308 72.0527 308 156ZM156 303C237.186 303 303 237.186 303 156C303 74.8141 237.186 9 156 9C74.8141 9 9 74.8141 9 156C9 237.186 74.8141 303 156 303ZM156 301C236.081 301 301 236.081 301 156C301 75.9187 236.081 11 156 11C75.9187 11 11 75.9187 11 156C11 236.081 75.9187 301 156 301ZM97.1821 70.9957L100.585 70L111.934 108.788L108.531 109.783L97.1821 70.9957ZM52 118.57L53.2201 115.241L84.2087 126.597L82.9886 129.927L52 118.57ZM61.409 76.8438L58.7937 79.2381L89.3174 112.58L91.9327 110.186L61.409 76.8438ZM211.532 70L214.938 70.9853L203.708 109.807L200.302 108.822L211.532 70ZM229.296 129.691L228.054 126.37L258.965 114.805L260.208 118.126L229.296 129.691ZM252.798 78.9164L250.144 76.5647L220.163 110.395L222.817 112.747L252.798 78.9164ZM137.603 129.213C137.119 130.377 135.667 130.856 133.038 131.335L100.325 136.127C100.325 136.127 95 137.086 95 137.826C95 138.35 95.9707 139.202 96.8742 139.995L96.8749 139.996C97.2473 140.323 97.6082 140.64 97.8849 140.919L124.048 166.596C124.048 166.596 125.5 167.754 125.016 168.713L118.238 206.09C118.238 206.09 117.497 208.71 117.754 208.965C118.011 209.219 120.175 208.006 120.175 208.006L154.063 190.276C155.427 189.536 156.246 189.396 157.937 190.276L191.825 208.006C191.825 208.006 193.865 209.207 194.246 208.965C194.627 208.723 194.246 207.527 193.762 206.09L187.468 169.671C186.984 167.275 187.952 166.814 187.952 166.814L215.096 139.961C216.516 138.523 217 137.839 217 137.565C217 137.291 217 137.086 215.063 136.607L178.962 131.335C176.333 130.856 174.881 130.377 174.397 129.213L156.968 93.9584C156.895 93.8126 156.835 93.6889 156.784 93.5841C156.627 93.2615 156.557 93.1171 156.441 93.0524C156.348 93 156.224 93 156 93C155.832 93 155.722 93 155.63 93.0401C155.458 93.1154 155.348 93.3326 155.032 93.9584L137.603 129.213ZM171.492 133.047C171.976 134.211 172.46 134.69 175.573 135.169L206.349 139.961C207.414 139.961 208.286 140.07 208.286 140.203L206.588 141.878L183.111 165.044C182.393 165.589 182.317 165.936 182.506 166.596L188.437 196.985C188.437 196.985 189.405 201.298 188.921 201.777C188.437 202.256 185.532 200.339 185.532 200.339L157.937 185.484C156.46 184.558 155.62 184.574 154.063 185.484L126.468 199.381C126.468 199.381 123.079 201.777 122.595 201.298C122.111 200.819 123.563 196.027 123.563 196.027L129.494 166.596C129.485 165.859 129.419 165.46 128.889 164.839L105.167 141.624C105.167 141.624 103.714 140.445 103.714 140.203C103.714 140.048 103.914 139.992 104.442 139.845L104.442 139.845C104.736 139.763 105.132 139.653 105.651 139.482L136.427 135.169C139.056 134.69 140.024 134.211 140.508 133.047L155.032 104.021C155.067 103.951 155.101 103.884 155.134 103.819L155.205 103.676C155.568 102.948 155.749 102.584 156 102.584C156.251 102.584 156.432 102.948 156.795 103.676L156.797 103.68L156.874 103.834C156.904 103.895 156.936 103.957 156.968 104.021L171.492 133.047ZM78.6131 191.853C78.3216 192.555 77.4471 192.844 75.8646 193.133L56.168 196.025C56.168 196.025 52.9615 196.604 52.9615 197.05C52.9615 197.366 53.5456 197.88 54.0894 198.359L54.09 198.359C54.3144 198.557 54.5318 198.748 54.6986 198.917L70.4513 214.412C70.4513 214.412 71.3257 215.11 71.0342 215.689L66.9533 238.244C66.9533 238.244 66.507 239.825 66.6618 239.979C66.8167 240.133 68.1193 239.4 68.1193 239.4L88.524 228.701C89.3448 228.254 89.838 228.17 90.8559 228.701L111.261 239.4C111.261 239.4 112.488 240.124 112.718 239.979C112.948 239.833 112.718 239.111 112.427 238.244L108.637 216.267C108.346 214.821 108.929 214.543 108.929 214.543L111.412 212.08L109.667 209.862L106.014 213.475C105.581 213.803 105.536 214.013 105.649 214.412L109.22 232.75C109.22 232.75 109.803 235.352 109.512 235.641C109.22 235.93 107.471 234.774 107.471 234.774L90.8559 225.81C89.9669 225.25 89.4608 225.26 88.524 225.81L71.9087 234.195C71.9087 234.195 69.8683 235.641 69.5768 235.352C69.2853 235.063 70.1598 232.171 70.1598 232.171L73.7306 214.412C73.725 213.967 73.6852 213.726 73.3662 213.352L59.0829 199.342C59.0829 199.342 58.2085 198.631 58.2085 198.485C58.2085 198.391 58.3287 198.357 58.6466 198.269C58.8235 198.219 59.0617 198.153 59.3744 198.049L77.9051 195.447C79.4876 195.158 80.0706 194.868 80.3621 194.166L89.107 176.651L89.2101 176.445L89.2113 176.443L89.2126 176.44C89.4304 176.002 89.5393 175.783 89.6899 175.783C89.8406 175.783 89.9495 176.002 90.1671 176.44L90.1686 176.443L90.1697 176.445L90.2234 176.552L90.2463 176.598L90.2668 176.639L90.2729 176.651L99.0178 194.166C99.3093 194.868 99.6008 195.158 101.475 195.447L111.172 196.96L111.616 194.319L103.515 193.133C101.933 192.844 101.058 192.555 100.767 191.853L90.2729 170.578C90.2521 170.537 90.2331 170.499 90.2156 170.463L90.1756 170.381L90.1616 170.352C90.0677 170.158 90.0252 170.071 89.9558 170.032C89.8992 170 89.8246 170 89.6899 170C89.5885 170 89.5226 170 89.4672 170.024C89.3635 170.07 89.297 170.201 89.107 170.578L78.6131 191.853ZM209.325 193.133C210.908 192.844 211.782 192.555 212.074 191.853L222.568 170.578C222.758 170.201 222.824 170.07 222.928 170.024C222.983 170 223.049 170 223.151 170C223.285 170 223.36 170 223.417 170.032C223.486 170.071 223.529 170.158 223.622 170.352L223.636 170.381L223.676 170.463C223.694 170.498 223.713 170.537 223.734 170.578L234.228 191.853C234.519 192.555 235.394 192.844 236.976 193.133L258.713 196.314C259.879 196.604 259.879 196.728 259.879 196.893C259.879 197.058 259.588 197.471 258.732 198.339L242.389 214.543C242.389 214.543 241.806 214.821 242.098 216.267L245.887 238.244C246.179 239.111 246.409 239.833 246.179 239.979C245.949 240.124 244.721 239.4 244.721 239.4L224.317 228.701C223.299 228.17 222.806 228.254 221.985 228.701L201.58 239.4C201.58 239.4 200.277 240.133 200.123 239.979C199.968 239.825 200.414 238.244 200.414 238.244L204.495 215.689C204.787 215.11 203.912 214.412 203.912 214.412L199.867 210.433L202.078 208.693L206.827 213.352C207.146 213.726 207.186 213.967 207.191 214.412L203.621 232.171C203.621 232.171 202.746 235.063 203.038 235.352C203.329 235.641 205.37 234.195 205.37 234.195L221.985 225.81C222.922 225.26 223.428 225.25 224.317 225.81L240.932 234.774C240.932 234.774 242.681 235.93 242.972 235.641C243.264 235.352 242.681 232.75 242.681 232.75L239.11 214.412C238.996 214.013 239.042 213.803 239.474 213.475L253.61 199.495L254.632 198.485C254.632 198.404 254.108 198.339 253.466 198.339L234.935 195.447C233.062 195.158 232.77 194.868 232.479 194.166L223.734 176.651L223.728 176.639C223.713 176.609 223.699 176.581 223.684 176.552L223.631 176.445L223.629 176.443L223.628 176.44C223.41 176.002 223.301 175.783 223.151 175.783C223 175.783 222.891 176.002 222.673 176.44L222.672 176.443L222.671 176.445L222.568 176.651L213.823 194.166C213.531 194.868 212.948 195.158 211.366 195.447L201.125 196.885L200.771 194.389L209.325 193.133Z" fill="white"/>
</svg>
